<?xml version="1.0" encoding="UTF-8"?>
<svg xmlns="http://www.w3.org/2000/svg" xmlns:xlink="http://www.w3.org/1999/xlink" width="20px" height="20px" viewBox="0 0 20 20" version="1.1">
<g id="surface1">
<path style=" stroke:none;fill-rule:nonzero;fill:rgb(0%,0%,0%);fill-opacity:1;" d="M 14.875 12.800781 L 17.324219 3.21875 L 20 3.21875 L 20 1.710938 L 16.152344 1.710938 L 15.574219 3.96875 L 0 3.957031 L 1.65625 12.800781 Z M 15.191406 5.476562 L 13.707031 11.292969 L 2.90625 11.292969 L 1.816406 5.464844 Z M 15.191406 5.476562 "/>
<path style=" stroke:none;fill-rule:nonzero;fill:rgb(0%,0%,0%);fill-opacity:1;" d="M 12.8125 18.289062 C 14.140625 18.289062 15.222656 17.207031 15.222656 15.878906 C 15.222656 14.550781 14.140625 13.472656 12.8125 13.472656 L 3.738281 13.472656 C 2.410156 13.472656 1.328125 14.550781 1.328125 15.878906 C 1.328125 17.207031 2.410156 18.289062 3.738281 18.289062 C 5.066406 18.289062 6.144531 17.207031 6.144531 15.878906 C 6.144531 15.5625 6.082031 15.257812 5.96875 14.976562 L 10.578125 14.976562 C 10.464844 15.257812 10.402344 15.5625 10.402344 15.878906 C 10.402344 17.207031 11.484375 18.289062 12.8125 18.289062 Z M 4.640625 15.878906 C 4.640625 16.378906 4.234375 16.78125 3.738281 16.78125 C 3.238281 16.78125 2.835938 16.378906 2.835938 15.878906 C 2.835938 15.382812 3.238281 14.976562 3.738281 14.976562 C 4.234375 14.976562 4.640625 15.382812 4.640625 15.878906 Z M 13.714844 15.878906 C 13.714844 16.378906 13.3125 16.78125 12.8125 16.78125 C 12.316406 16.78125 11.910156 16.378906 11.910156 15.878906 C 11.910156 15.382812 12.316406 14.976562 12.8125 14.976562 C 13.3125 14.976562 13.714844 15.382812 13.714844 15.878906 Z M 13.714844 15.878906 "/>
</g>
</svg>
